<?xml version="1.0"?>
<svg width="501" height="93" xmlns="http://www.w3.org/2000/svg" xmlns:svg="http://www.w3.org/2000/svg" enable-background="new -0.3779297 -0.6791992 501 93" version="1.1" xml:space="preserve">

 <g class="layer">
  <title>Layer 1</title>
  <polygon clip-rule="evenodd" fill="#FFFFFF" fill-rule="evenodd" id="svg_1" opacity="0" points="-1,0 499,0 499,91.39794921875 -1,91.39794921875 -1,0 "/>
  <path clip-rule="evenodd" d="m154.94,39.31c-2.15,2.55 -4.3,5.28 -8.21,5.28c-3.91,0 -0.2,-4.3 -5.87,-3.71c-5.67,0.58 -3.91,0.39 -5.28,-0.59c-1.36,-0.98 -2.2,0.2 -2.93,1.37c-4.88,7.82 -10.23,11.72 -15.83,17.01c-3.58,3.37 -6.03,4.49 -7.14,3.58c0.61,-0.55 1.22,-1.1 1.86,-1.63c6.06,-5.08 12.9,-15.64 12.9,-20.72c0,-5.08 -8.01,-3.91 -12.31,1.96c-2.41,3.27 -7.31,11.8 -8.92,18.68c-1.67,1.27 -3.06,2.21 -4.18,2.82c-2.15,1.17 -4.69,2.15 -1.96,-4.3c2.74,-6.45 4.5,-10.75 5.28,-13.1c0.78,-2.34 -3.32,-2.74 -6.25,-0.59c-2.94,2.15 -7.63,8.8 -6.06,3.72c1.56,-5.08 -0.59,-10.95 -6.06,-6.65c-5.48,4.3 -7.04,7.04 -9.19,9.19c-2.15,2.15 -3.13,2.35 -0.79,-1.57c2.35,-3.9 4.89,-7.62 6.26,-9.77c1.37,-2.15 -0.59,-7.62 -4.11,-4.1c-0.97,0.97 -4.1,5.78 -7.36,11.15c0.12,-1.19 -0.69,-2.48 -3,-3.14c-1.97,-0.56 -4.23,-0.8 -6.55,-0.85c3.13,-9.13 7.14,-21.53 7.14,-23.59c0,-2.73 -4.3,-5.66 -8.21,-1.76c-2.13,2.13 -13.71,15.57 -24.51,28.18c-0.93,0.11 -1.77,0.17 -2.47,0.17c-3.91,0 -11.34,-2.34 -11.34,1.57c0,3.79 4.61,4.63 8.63,4.32c-6.91,8.1 -12.72,14.92 -14.3,16.79c-4.3,5.08 2.35,7.03 5.28,3.52c5.69,-6.83 12.17,-14.49 18.07,-21.43c4.66,-0.6 9.7,-1.22 12.1,-1.25c-0.58,1.92 -1.09,3.87 -1.43,5.67c-1.17,6.25 -3.13,5.67 -4.69,5.47c-1.57,-0.19 -4.11,0.98 -1.57,3.91c2.54,2.94 0.59,10.36 6.06,10.36c4.7,0 2.74,-8.4 8.61,-24.43c0.14,-0.41 0.31,-0.86 0.48,-1.34c2.69,-0.13 5.36,-0.13 7.34,0.36c1.24,0.31 2.39,0.01 3.2,-0.61c-3.58,5.98 -7.02,12.17 -7.7,14.29c-1.37,4.31 -0.2,8.41 4.1,8.41s2.74,-3.13 7.24,-8.01c4.5,-4.89 7.82,-7.63 7.82,-7.63s-2.74,6.26 -2.74,8.6c0,2.35 3.91,4.7 6.84,1.96c2.94,-2.74 6.26,-6.06 6.26,-6.06s-3.52,10.94 3.91,10.94c3.88,0 7.01,-1.66 9.99,-3.96c0.8,1.61 2.38,2.6 5.06,2.6c6.65,0 18.57,-12.32 18.57,-12.32s-1.76,8.02 -2.73,10.56c-0.98,2.54 4.3,3.71 6.25,-0.2c1.96,-3.91 6.65,-19.16 9.58,-19.35c2.93,-0.2 1.57,2.35 8.99,1.76c0,0 -4.69,12.7 -5.28,16.81c-0.58,4.1 4.5,5.08 5.48,1.17c0.98,-3.91 7.15,-21.28 11.34,-27.56c2.35,-3.52 -3.52,-4.5 -5.67,-1.96l0,0z" fill="#ffffff" fill-rule="evenodd" id="svg_2"/>
  <path clip-rule="evenodd" d="m166.1,33.25c1.84,0 3.32,-1.49 3.32,-3.32s-1.48,-3.32 -3.32,-3.32c-1.83,0 -3.31,1.49 -3.31,3.32s1.48,3.32 3.31,3.32l0,0z" fill="#ffffff" fill-rule="evenodd" id="svg_3"/>
  <path clip-rule="evenodd" d="m171.38,50.65c0,0 0.59,3.33 3.33,3.33c2.73,0 5.47,-5.09 7.42,-8.02c1.96,-2.93 1.57,-5.28 0.2,-6.26c-1.37,-0.97 -3.32,-2.34 -5.28,-1.17c-1.95,1.17 -20.52,12.91 -21.89,27.76c-1.06,11.51 18.37,4.3 21.7,0.59c0,0 2.15,11.53 15.24,-1.76c0,0 0.79,11.53 7.82,4.3c7.04,-7.23 12.13,-13.49 12.13,-13.49s-3.52,12.71 2.54,12.71c3.12,0 15.24,-13.29 15.24,-13.29s-3.32,13.09 -3.12,15.83c0.19,2.74 2.15,5.08 3.91,0.98s7.82,-18.97 10.16,-23.46c2.35,-4.5 -0.58,-9.39 -5.47,-5.87c-4.89,3.52 -13.69,11.93 -15.25,13.1c-1.56,1.17 -0.19,-1.37 1.17,-4.3c1.37,-2.93 5.48,-11.93 1.18,-11.73c-4.3,0.2 -11.54,8.99 -17.79,15.25c0,0 -0.79,-3.13 1.56,-6.84c2.35,-3.72 3.32,-8.02 0.2,-8.41c-3.13,-0.39 -3.72,1.56 -3.72,1.56s-8.21,-2.15 -17.01,8.02c-5.68,6.56 -4.69,8.01 -4.69,8.01s-10.56,9.78 -16.62,9.78s1.37,-11.54 7.04,-16.62l0,0z" fill="#ffffff" fill-rule="evenodd" id="svg_4"/>
  <path clip-rule="evenodd" d="m256.42,59.65c0,0 -5.86,3.12 -5.86,5.47c0,2.34 2.93,2.34 8.6,2.34c5.67,0 13.29,-1.36 13.29,-8.6c0,-7.23 -11.53,-11.34 -11.53,-19.94c0,-8.6 12.31,-15.64 24.04,-15.64c11.73,0 11.54,7.63 8.6,9.19c-2.93,1.57 -8.21,1.17 -8.01,-3.13c0,0 -16.03,-2.73 -16.03,8.02c0,8.8 13.1,9.38 13.1,19.94c0,10.56 -14.08,17.2 -25.22,17.2c-11.14,0 -16.03,-4.1 -16.03,-7.42s4.69,-7.43 15.05,-7.43l0,0z" fill="#ffffff" fill-rule="evenodd" id="svg_5"/>
  <path clip-rule="evenodd" d="m364.53,41.66c-4.11,1.37 -15.84,11.53 -18.18,14.07c0,0 2.15,-8.6 4.1,-11.72c1.96,-3.13 -2.54,-5.09 -5.27,-3.13c-2.74,1.95 -17.8,17.59 -20.53,20.91c0,0 2.34,-8.79 5.86,-11.92c3.52,-3.13 1.37,-6.06 -0.39,-5.67c0,0 0.59,-6.64 -11.34,-2.54c0,0 -7.95,-0.39 -14.38,-0.22c2.46,-4.84 4.87,-9.18 6.17,-10.73c4.11,-4.89 -0.97,-7.23 -4.3,-4.1c-1.18,1.11 -5.31,8.08 -8.98,14.98c-3.62,-0.01 -9.47,0.21 -12.33,1.63c-4.3,2.15 -4.11,8.41 0,8.41c2.15,0 4.11,-2.35 4.11,-2.35s1.84,-0.11 4.48,-0.26c-0.2,0.42 -0.39,0.84 -0.57,1.24c-3.72,8.21 -3.91,11.73 -5.87,11.93c-1.95,0.19 -3.9,1.36 -3.9,5.67c0,4.3 1.95,6.64 5.86,3.12c3.91,-3.52 5.86,-8.6 8.8,-15.63c0.76,-1.85 1.82,-4.2 3.01,-6.72c3.67,-0.18 7.32,-0.32 9.5,-0.32c0,0 -12.12,9.58 -12.12,16.02c0,6.46 7.62,9 17.4,1.77c0,0 3.32,17 23.26,-11.74c0,0 -3.52,13.5 1.95,13.5c2.74,0 15.25,-13.3 17.6,-15.25c0,0 -4.69,12.9 -4.5,16.22c0.2,3.33 -0.19,3.72 1.96,3.72c2.15,0 5.08,-9.39 7.62,-15.84c2.54,-6.45 3.32,-6.84 3.32,-9.19c0.01,-2.34 1.76,-7.23 -2.34,-5.86l0,0z" fill="#ffffff" fill-rule="evenodd" id="svg_6"/>
  <path clip-rule="evenodd" d="m485.73,24.65c1.96,-2.34 -2.34,-5.08 -5.86,-0.58c-3.52,4.49 -7.43,12.9 -9.19,16.03c0,0 -9.01,-3.71 -16.63,5.24c-4.9,-5.51 -12.69,-1.33 -12.69,-1.33c0.78,-5.67 -4.69,-4.5 -6.45,-2.55s-10.76,12.12 -12.71,14.66c-1.95,2.55 -3.71,4.5 -4.89,3.53s2.15,-7.43 3.91,-11.73c1.76,-4.3 -2.54,-3.52 -2.54,-3.52s1.37,-5.28 -3.52,-4.7c-4.89,0.59 -17.51,5.03 -23.46,22.88c-0.25,0.75 -0.42,1.43 -0.53,2.07c-0.87,0.56 -1.89,0.6 -2.79,-0.93c-0.59,-1.23 -0.96,-3.42 0.2,-7.2c2.14,-7.04 10.75,-25.22 13.68,-29.72s-1.56,-7.43 -4.5,-4.1c-2.93,3.32 -9.38,18.18 -9.38,18.18s-8.02,-2.15 -15.84,6.25c-5.01,5.39 -8.6,13.88 -8.6,17.4c0,3.52 3.42,14.96 15.94,1.66c2.68,4.47 4.05,5.47 6.2,5.27c9.66,-4.19 4.71,-1.07 8.24,-1.07c9.24,0 12.14,-2.4 14.68,-6.15c0.59,9.19 5.77,6.35 9.09,3.42c3.33,-2.93 10.56,-10.17 10.56,-10.17s-1.76,8.41 -3.13,11.15c-1.37,2.74 5.48,2.15 5.87,0c0.39,-2.15 3.13,-6.85 5.86,-12.32c3.57,-7.14 9.19,-8.8 13.1,-8.01c0.58,0.11 1.06,0.13 1.48,0.08c-0.5,0.81 -1,1.69 -1.48,2.65c-8.01,16.04 -6.06,26.39 8.6,17.4c0,0 0.19,10.32 14.47,-2.54c1.95,-1.76 1.37,-4.3 -1.76,-2.54c-3.13,1.76 -6.84,1.76 -4.69,-2.15c2.15,-3.91 11.76,-28.15 18.76,-36.56l0,0z" fill="#ffffff" fill-rule="evenodd" id="svg_7"/>
  <path clip-rule="evenodd" d="m195.82,49.28c0,0 -11.8,8.35 -9.97,12.32c1.17,2.54 7.23,-6.65 9.97,-12.32l0,0z" fill="#FFFFFF" fill-rule="evenodd" id="svg_8"/>
  <path clip-rule="evenodd" d="m319.96,49.09c0,0 -5.48,0.59 -9,5.27c-3.51,4.7 -7.03,11.54 -1.95,8.8c5.08,-2.73 10.56,-8.6 10.95,-14.07l0,0z" fill="#FFFFFF" fill-rule="evenodd" id="svg_9"/>
  <path clip-rule="evenodd" d="m382.52,48.31c0,0 -4.31,1.37 -7.82,6.64c-3.53,5.28 -4.89,14.08 -0.2,9c4.69,-5.09 7.43,-10.17 8.02,-15.64l0,0z" fill="#FFFFFF" fill-rule="evenodd" id="svg_10"/>
  <path clip-rule="evenodd" d="m410.27,48.5c0,0 -4.49,3.52 -3.12,8.99c0,0 -4.31,5.48 -7.24,5.67c-2.93,0.2 4.5,-15.83 10.36,-14.66l0,0z" fill="#FFFFFF" fill-rule="evenodd" id="svg_11"/>
  <path clip-rule="evenodd" d="m461.1,47.72c-2.15,1.17 -7.04,8.6 -7.62,12.51c-0.59,3.91 0.58,4.5 3.91,0.98c3.32,-3.52 5.08,-8.4 5.86,-11.53c0.79,-3.13 -0.67,-2.77 -2.15,-1.96l0,0z" fill="#FFFFFF" fill-rule="evenodd" id="svg_12"/>
  <path clip-rule="evenodd" d="m48.81,44.01c-1.3,0.12 -2.99,0.38 -4.8,0.68c7.36,-8.63 12.81,-14.96 12.81,-14.96c0.2,1.57 -1.56,7.83 -2.34,9.58c-0.3,0.67 -0.96,2.27 -1.73,4.33c-1.44,0.13 -2.78,0.26 -3.94,0.37l0,0z" fill="#FFFFFF" fill-rule="evenodd" id="svg_13"/>
  <path clip-rule="evenodd" d="m118.21,45.18c1.55,1.21 -2.99,5.92 -7.03,9.56c2.93,-8.59 5.27,-10.93 7.03,-9.56l0,0z" fill="#FFFFFF" fill-rule="evenodd" id="svg_14"/>
 </g>
</svg>