<svg xmlns="http://www.w3.org/2000/svg" height="800" width="1200" viewBox="-16.350495 -14.578 141.70429 87.468"><path fill="#f9a61a" fill-rule="evenodd" d="M45.617.7572a13.984 13.984 0 00-.6855.0254c-3.72.2312-6.3855 1.9981-8.1955 3.9463-2.0068 2.1602-3.1413 4.6306-4.0986 8.12.435.096.8738.1888 1.3662.2275C35.1799 8.0529 38.78 2.8024 44.4 2.3764c3.4711-.2633 6.2265 1.1162 7.5125 3.5664.1575.3002.176.8199.456 1.1387.3038.3457 1.0009.216 1.29.6826-.0114.5969-.5556.3035-.8349.3037-1.9576.0005-3.7479-.0649-5.3875.6074-.7003.2872-1.0105.8924-1.8974.7588.492-1.137 1.9325-1.2165 2.3525-2.2774.3876-.9794-.0788-2.1747-.6826-2.6552-1.19-.9474-3.1256.0287-3.9463.6826-4.1463 3.3049-2.9314 10.884-.1523 14.343 1.5828 1.9703 4.2365 3.5974 7.3615 3.1875 1.6935-.2222 1.927-1.3081 3.2627-1.9737-.7958 3.0458-3.6647 5.048-7.3605 5.3125-2.4034.172-4.0984-.426-5.464-1.1386-.3388-.1767-.8002-.4886-.9864-.379.0745 2.9836-.2135 5.6056-.2285 8.499 1.2698 1.5057 2.8367 2.8483 4.4013 4.0987 1.5248 1.2184 3.181 2.743 5.54 2.8076.2276-4.5788-.0751-9.688.1524-14.2665 1.0608-.6123 2.2456-.9512 2.959-1.8213.5054-.616 1.9456-3.2068.9863-3.5674-.5791-.2176-1.3714 1.1282-2.0488 1.5176-.6033.3467-1.175.5883-1.9727.456-.1324-.6554.0145-1.529-.1523-2.2773-.1158-.5198-.5419-.8248-.455-1.2138 1.7223-.271 3.763-.1514 5.6924-.1514 1.9217 0 3.9918-.074 5.3875.5302 1.6794.7272 2.7997 3.2816 2.2002 5.3125-.5273 1.7865-2.42 2.2506-4.5527 2.5811 2.7516.0071 4.8884.7792 6.374 1.9726.1664.1339.2594.5276.5312.379-.2162-2.0006.26-3.9408 1.29-5.009.4385-.4543 1.4888-1.1131 2.2774-1.2139 1.2085-.1546 1.857.637 2.959.6836.4722.02.9771-.346 1.4424-.1523.008 2.9445-.3964 6.5125.0762 9.1825-1.1105-.1034-2.6634.2351-3.415-.2276-.6613.5215-1.8789.52-2.8087.2276.0004-.042-.0609-.086-.0752 0 1.2757 5.755-1.6956 9.616-6.2235 10.549 10.2005 1.6933 23.502 1.2556 31.343-2.2774-9.0145.1099-12.53-5.2785-14.7225-11.99-.1642 1.029-.0983 2.8772.0752 3.5674h-3.4902c.3803-1.2541.2275-2.9277.2275-4.705 0-2.0077.1396-3.7573-.3799-4.8575 3.3614.069 6.9375-.6336 7.665 1.8975.5562 1.9363-1.0437 2.7739-2.6562 3.1113.6428.2427 1.5692-.095 1.9736-.0762.2859 1.5859.7797 2.964 1.4414 4.1739-.1871-2.9863.5213-6.932-.3037-9.1065 1.8163.2083 3.9726-.2656 5.6925.0762 1.405.279 2.4597 1.8376 1.9727 3.3388-.3447 1.0628-1.5723 1.2045-2.6563 1.67.6719.039 1.2216-.0434 1.8213-.0763.4048 1.7962 1.1549 3.2472 1.8975 4.7051-1.2917-.0488-2.7805.0988-3.9463-.0761-.0152-1.6288-.6915-2.5968-1.2139-3.7188-.0446 1.2728-.1487 2.9.0762 3.795H82.041c.7647 2.0208 2.0225 3.4878 3.6426 4.8564 1.4008 1.183 3.5626 2.6702 5.7675 2.8076 2.2806.1427 4.157-1.2752 5.615-2.2764 1.7938-1.2318 3.0784-2.3687 4.25-3.7187 2.4318-2.8025 4.5283-6.7035 4.6299-11.2315.0521-2.3241-.5476-4.704-1.291-6.6015-2.1292-5.437-6.9955-9.714-14.1905-9.714-5.1475 0-8.555 2.0107-11.7625 4.25.6483-.1611 1.1283-.491 1.8213-.6074.5684 2.7706 1.1368 5.5415 2.4287 7.589h-3.871c-.6001-1.7272-.9551-3.699-1.5938-5.3875.0271 1.2002-.2906 3.1656-.0752 4.4013.071.4078.361.5993.3037.9102h-4.0986c.1666-.3244.1905-.5511.2285-.9864.301-3.467.1138-7.778-.2285-10.7 1.3668-.1759 2.614-.4724 3.7949-.835.0903 1.5286.065 3.1729.1513 4.7052 3.7251-2.3326 7.687-4.8854 14.2675-4.4766 4.6751.2904 8.3395 2.4364 10.7 5.16 2.3953 2.764 4.302 6.775 4.5528 11.3065.249 4.494-1.4436 7.9905-3.2637 10.8525-3.257 5.1225-8.563 8.316-14.798 10.245-9.582 2.9645-23.6525 2.6251-33.618.1514-6.351-1.576-11.2255-4.467-15.1735-8.27-.2385-.2295-.573-.6745-.7585-.531-.117.3637-.083.8776-.2275 1.2138 8.001 8.503 24.0045 11.9695 40.297 10.3205 7.769-.7865 14.035-3.0374 19.123-6.5265 4.68-3.209 9.1265-8.943 9.4865-16.164.3698-7.413-2.7866-12.5605-6.5265-16.0115-3.5053-3.2353-7.922-5.5805-14.5705-5.54-2.6329.016-4.941.5318-7.134 1.0625-3.5635.8622-7.134 2.4172-11.383 1.1387-.4956 2.3177-2.8022 3.2307-5.92 2.959-3.3423-.2918-5.5265-2.379-8.12-3.9463-2.285-1.3831-5.46-2.5739-8.873-2.5295zm-29.62 1.5527c-.4853.002-.945.1434-1.1923.4453.543.5954 2.0047.272 1.8213 1.5938-.744.1623-.919-.2443-1.3662-.379-.1728.156-.262.3956-.2276.7589.612.1796 1.83.1326 1.669.835.4358.0195.8993.0114 1.1386.2275.0372.2395-.137.268-.0762.5312-.473.0583-.7153.3464-1.1377.455-.1458-.1827-.2133-.4448-.456-.5312-.2376.1941-.4382.8815-.1514 1.1387.3734-.0061.4452-.314.835-.3037.3423.0873.3766.4823.6826.6064.2741-.316.7965-.352.9863-.9101-.056-.1718-.2885-.1664-.3027-.3799.1073-.196.1313-.475.2275-.6826-.7388-.1633.0964-1.4431-.455-1.7451-.5128-.0826-.6681.192-1.1387.1514.017-.1435-.0859-.1678-.0762-.3037.1277-.353.74-.2207.9864-.4551-.0795-.6732-.9578-1.0565-1.7666-1.0528zm-1.041 4.3164c-.12.1123-.263.3918.0762.379-.0383-.2385.1784-.3096-.0761-.379zm1.9239 1.166c-.065-.014-.1384.0002-.2539.0479-.1071.2421.454.192.455.0761-.08-.0669-.1362-.1099-.201-.124zm.8838.4268c-.4791.1235-.7533.3355-1.2138.3037.066.3018.066.3818 0 .6836.6102.4738 1.4261-.4022 1.2138-.9873zm1.5186 0c.05.3544-.1469.957.2275.9873V8.219zm-11.3075.3037c-.1238.655.183.8793.3037 1.29-.1101.2212-.3722.6883-.1524.9873.4256-.4287.772-1.5072.3799-2.2773zm78.48.0185c.1674.0072.3396.0262.5166.0577 1.7805.3166 2.9127 2.255 2.58 4.7812-1.09.1745-2.5015.0266-3.7177.0752-.0126 1.3694.5212 2.365 1.5176 2.3526 1.1168-.0143.9507-1.6032 2.2764-1.29-.3657 1.2952-.674 2.737-1.67 3.4911-1.1244.8508-3.1751.6-4.249-.3037-1.0772-.9059-1.487-2.9624-1.3661-4.5528.1664-2.1918 1.6004-4.719 4.1123-4.6113zm7.4315.0206c2.3442.044 4.3161.4922 4.0888 2.9209-.1265 1.3468-1.3175 1.7659-2.8838 1.9726.5054.3333 1.2345.1353 1.8975.0762.3818 1.7947 1.3026 3.4513 1.9726 4.705h-3.8701c-.0994-1.5954-.7588-2.631-1.2148-3.87-.2637.9972-.2449 2.8908.0771 3.794h-3.5674c.2528-1.1173.1514-2.8695.1514-4.7052 0-1.9973.2032-3.7942-.379-4.8564.8504.02 1.7859-.0212 2.7052-.0362a29.3199 29.3199 0 011.0224-.001zm-42.298.079c2.6165-.0313 4.972.1437 5.256 2.3106.2243 1.7126-1.1718 2.4877-3.0362 2.6563.5388.3275 1.4272.0521 2.0498 0 .358 1.793 1.2818 3.421 1.8965 4.705h-3.8701c.0273-1.621-.787-2.4004-1.1387-3.6425-.2662.9112-.2575 2.8286.0762 3.6426h-3.5664c-.0577-1.8861.5558-6.2395.1513-8.5-.0778-.4359-.4742-.7386-.455-1.1377.8631.0097 1.7645-.0237 2.6367-.0342zm18.749.0372c.7862.0189 1.6141.24 2.4433.6797-.0643.952.1092 2.6508-.0762 3.7187-1.081.1485-.8366-1.0948-1.0625-1.746-.237-.6848-.754-1.5997-1.3662-1.5928-1.7665.0203-1.3663 6.164.5313 6.2225.9244.0286 1.0474-1.0592 2.2011-1.29.7148 2.814-3.0115 4.8416-5.3125 3.4902-2.3832-1.3995-2.6022-5.8745-.7588-7.968.8944-1.0159 2.09-1.5462 3.4004-1.5147zm-8.966.1054c.1571.005.317.019.4804.043.9565.1407 1.7034.7212 3.2637.455.1224 2.6462-.2599 6.4236.2276 8.955-.9798.064-2.7492.274-3.4912-.1513-3.2606 1.3457-5.0425-1.782-4.7041-5.085.2316-2.2615 1.866-4.2892 4.2236-4.2168zm32.783.9385a1.5385 1.5385 0 00-.3536.0157c-.1253.7908-.1253 2.093 0 2.8838 1.8388.264 2.0029-2.7743.3536-2.8994zm-77.27.0108c-.3472.0956-.0128.8724-.337.9912-.2777.0458-.3532-.5011-.6074-.2276.135.1433.2509.3056.2286.6065-.1689.0589-.296.1598-.5313.1523-.0294.4849.4335.4765.455.9102.5075-.5847 1.1514-1.4223.9864-2.4278-.0813-.018-.1447-.0184-.1943-.0049zm69.735.067c-.888.0323-1.0367 1.6552-.9385 2.5947.4206.3248 1.2086.0957 1.5176-.1523.1693-.775.1245-1.6635-.1514-2.3526-.1585-.067-.3009-.0944-.4277-.0898zm-67.83.0285c-.1488.0073-.2763.065-.3409.2129.2165.315.41.6524.4551 1.1386-.042.211-.2934.2126-.455.3037-.055.2319.0776.276.0761.4551.2584.0561.1244-.2798.3027-.3037.1904.0627.2406.2664.38.3799.1511-.6076.2933-1.2251.3036-1.9737-.1674-.0958-.4737-.225-.7217-.2129zm34.409.0244c-.1955-.0293-.4217.0025-.6768.1133.0473.8887-.0966 1.968.0762 2.7314 1.8558.5248 1.9687-2.64.6006-2.8447zm-35.205.1885c-.0158.2182.0187.3862.1513.456-.002-.1789.131-.2242.0762-.456h-.2276zm3.0693.0507c-.3272.0212-.6054.1507-.8691.1016-.2353.2524-.5628 1.301 0 1.4414.3267-.1538.093-.8678.5312-.9101-.0278.131-.2298.4691-.0762.5312.0858-.244.2172.0728.1524.2275.385.0815.3151-.2916.455-.455.0406.2935-.1358.37-.0761.6826.5368-.02.583-.5305.9111-.7588-.102.2372-.1337.6982.0752.835.72-.1268 1.4085-.7926 2.2774-.3038-.5843-.0276-1.0596.0531-1.5176.1514.0276.8323.5764 1.1446 1.0625 1.5185-.0035.383.2608.4974.6826.4551-.0969-.5019.2733-.537.5312-.6836.1631-.1943-.0695-.4302.0762-.5313.5473.085.4057.8593 1.0625.835.6547-.9152-.9354-2.247-2.2773-2.7315-.6387-.2304-1.6136-.0331-2.2764-.1523-.1299-.0231-.2575-.1997-.3799-.2275a1.188 1.188 0 00-.3447-.0254zm-11.038.0254c-.5309.3038-.8652.8037-1.29 1.2139-.1457.4613-.036 1.179-.6074 1.2148-.2999-.024.0567-.2349-.1514-.3037-.914.6628-.4173 2.1022.1514 2.6563-.4466.0848-.9634.0982-1.3653.2275-.235.6001-.6948.9752-.6074 1.8975.2621.3198.7906.3716.9102.834-1.1117-.3108-1.7265.488-1.7451 1.5185.6944.0646 1.2693.2482 1.745.5313.284-.1957.2334-.5332.0762-.835.5284-.448 1.2723-.3622 1.1387-1.1386-.0967-.5626-1.1284-.8892-1.29-1.4414.5346-.132.678.4539.9863.3037.0437-.6003-.5842-.5292-.835-.835.7389-.1196 1.6816.261 2.0489-.456-.3216.0182-.6008-.0058-.6826-.2276.056-.3992.2509-.659.455-.9101.8034-.1062 1.1312-.6364 1.1387-1.29.0085-.7354-.6749-1.1813-.6836-1.8214.3252-.1662.552.1314.9873.0752.2892-.3694-.0069-1.0488-.3799-1.2138zm51.69.125c-2.14-.0516-1.594 6.8345.1387 6.4015.4044-.7604.2275-1.9973.2275-3.1113 0-1.1842.1159-2.3908-.1514-3.2627a1.1094 1.1094 0 00-.2148-.0274zm-49.871.1787c-1.3312-.0585-.6914 2.5417.3799 1.7451.1-.5406-.216-1.2254-.3799-1.745zm1.2139.6074c-.2127.3068.0802.6472 0 1.0625.5649.1489 1.4184-.1402 2.0498.0752-.2685-.436-.674-.9809-1.4424-.6826-.2451-.1093-.2685-.4398-.6074-.455zm4.8183.1045c-.456-.01-1.0224.9249-.2646 1.4131.2087-.2468.3355-.5754.6826-.6836-.0268-.5259-.2108-.725-.418-.7295zm4.1309.9033c-.2831-.0109-.5596.1366-.753.5098.4384.1686.7526.4605.6826 1.1377.2196.306.9953.306 1.2149 0 .1326-.8343-.5218-1.6235-1.1446-1.6475zm-6.1095.9248c-1.2524-.0704-.94 1.7596-.7149 2.3164-.3961-.001-.74-.804-.9101-.5312-.0558.409-.0189.6915-.2276 1.0635.5934-.0117.9708.1916 1.5928.1513.1747-.2045.1554-.6049.456-.6836-.1383.6709-.3177 1.3026-.6836 1.7461-.0205-.2577.0594-.6153-.0752-.7588-.1435.017-.1675-.0858-.3037-.0761-.8622.792.0025 2.1175 0 3.1875.561.385 1.6169.1631 2.3526.0752.2965-1.1247-.2935-2.3757.0761-3.3389.2214.0824.285.3215.6065.3037.2403-1.227-.5277-1.4447-.7588-2.2002.264-.2168.666-.2956.7588-.6836-.3155-.064-.563-.1952-.9864-.1513-.32.2872-.3877.8256-.6826 1.1377-.5182-.1588-.4125-1.0646-.2275-1.5176a1.6235 1.6235 0 00-.2725-.04zm4.6054.0371c-.2333.011-.4694.0744-.6152.1553.0703 1.3133-1.4763 3.0322-.3038 3.794.1428-.515-.0854-1.4014.38-1.5938.1098.7472-.4764 1.634.2275 1.8975-.0073-1.5938 1.4142-2.5075.9111-4.0977-.1353-.125-.3663-.1663-.5996-.1553zm8.4725 1.1797c-1.3961-.024-2.3594.3846-3.168.9483 1.6171.2524 2.9923-.1245 3.794-.9102a7.5788 7.5788 0 00-.626-.038zm3.7305.0684c-1.892-.0326-3.2922.4256-4.546 1.0313 1.1457-.0241 2.2994.4137 3.3389.2275.8519-.1526 1.4304-.9265 2.0489-1.2139a11.9046 11.9046 0 00-.8418-.0449zm-6.5955.1211c-.3944.0104-.7295.0796-.9102.3037.231.0725.3047.3017.6826.2275.1502-.1027.2951-.2106.2275-.5312zm8.3025.2178c-.5241-.038-1.0791.2562-1.3203.541.5854.143 1.6442.1352 1.8213-.38-.1552-.099-.3263-.1484-.501-.161zm1.457.752c-.1283.008-.2477.0657-.2734.1679.0881.0128.0828.121.0761.2285h.5313c.12-.285-.1201-.41-.334-.3965zm-11.743.0741c-.268-.0089-.5198.1277-.4443.4737.2119.1178.8756.1481.9863-.0762.0103-.2345-.2739-.3885-.542-.3975zm10.8535.165c-.1867-.0251-.4088.0144-.5224.0811v.2276c.1846.1466.6351.0731.8349 0 .0259-.1933-.1258-.2834-.3125-.3086zm-9.589.0616c-.2292.0185-.4207.1326-.3428.3994.2281.0542 1.012.2706.9102-.2285-.0716-.1129-.3382-.1893-.5674-.1709zm8.2665.0088c-.262-.0132-.548.1038-.5654.3145.1646.3787.5635.119.9863.1513.0793-.3097-.1588-.4526-.4209-.4658zm-14.9845.0107c-.3149.3036-.403 1.2004-.2275 1.7451.3797-.2878.3376-1.3693.455-1.6699-.097-.004-.1051-.0967-.2275-.0752zm13.4385.0596c-.243-.0015-.5133.0784-.6133.168-.089.5621.9892.6119 1.0625.1523.0092-.2359-.2063-.3189-.4492-.3203zm-5.218.0576a3.574 3.574 0 00-.3281.0342v.456c.2724.1576.8203.039 1.2138.0753v-.4551c-.3245-.0903-.5792-.127-.8857-.1104zm2.0723.0166c-.5004-.0067-.969.0654-.6553.625h1.1387c.0871-.2127.0871-.395 0-.6074-.1462-.0045-.3166-.0153-.4834-.0176zm2.1523.0176c-.4163-.0116-.8178-.0078-1.1386.0762-.0627.2146.1072.197.0761.3799.3183.2033.7635-.018 1.1387 0 .055-.2323-.1313-.2242-.0762-.4561zm5.6915 0c-2.3723 1.0218-6.0555 1.1224-9.258 1.0625-.0731.1998-.1467.6504 0 .835 3.3385.3927 7.194.0185 9.5615-1.0625-.2018-.178-.0598-.6994-.3037-.835zm-13.4315.3799c-.0547.4038-.16.5118-.0762.9101 1.1346.3329 2.6839.6553 3.9463.6074-.218-.1844-.184-.7202 0-.9101-1.41-.0826-2.6491-.3359-3.87-.6074zm-9.9415.455c.0226.4074-.1088.9688.3037.9864.182-.2761-.1175-.6102-.0762-.9863zm.6074 0c-.1267.2849-.185 1.0724.3037.9864-.0636-.3664-.0412-.8189-.3037-.9863zm13.8865.5313c.1872-.01.3663-.0114.456.0762v.3037c-.2775.221-.6839-.072-.456-.3799zm8.424.455c.665 1.4855.6744 3.6267 1.3662 5.085.1214-1.5933-.8072-3.4398-1.1386-5.085h-.2276zm-.9863.2276c.218 1.6052.6479 3.6514.8349 5.54.3975.018.589-.1694.7588-.3789-.2546-1.9461-.5517-3.851-1.4424-5.161h-.1514zm-12.294.0762c-.0441 1.8778-.0432 3.9585.455 5.616.1817-1.7661.365-3.5318.456-5.3885-.2521-.1271-.622-.1372-.911-.2275zm11.3195.164c-.315-.025-.6746.0607-.8467.2159.6971 1.4532.6464 3.6536.8349 5.615.4562-.0498.8899-.1211 1.2139-.3028.1041-1.9404-.6153-3.6742-.9102-5.465-.0862-.0343-.187-.055-.292-.0634zm-9.507.13a.791.791 0 00-.2188.0097c-.2186 1.982-.4127 3.9892-.5312 6.0715.327.0775.6132.1959 1.0625.1514.1612-1.9197.3125-4.2308.2275-6.1465-.2274.019-.3502-.0671-.54-.086zm1.8935.1328c-.299-.0069-.5684.0466-.5947.2568-.3143 1.7598-.0785 4.0692-.1514 6.0705.5394-.0587.8458.115 1.3652.0762-.0322-2.1826.0187-4.2825.1524-6.299-.1441-.031-.4726-.0977-.7715-.1045zm-7.576.0283c-.0112 1.2284-.2343 2.6498-.0762 3.7949.1983-1.2504.7809-2.4985.6826-3.795h-.6064zm11.914 0c-.3111-.0075-.6213-.0148-.834.0762-.3813 1.7886.0496 4.0363 0 5.995.3165.1585.9725.085 1.2139-.0762-.0247-1.8013-.0415-4.2557-.38-5.995zm1.8213 0a3.4978 3.4978 0 00-.9863.0762c-.033 1.8542.3294 3.971.3798 5.995.5618.0053.9695-.143 1.29-.379-.1373-1.9875-.141-4.1103-.6835-5.6925zm-4.7812.0762v6.2225c.3684.165 1.0667.0742 1.3662-.0752v-6.1475h-1.3662zm9.7295 1.58c-.0061.0004-.0115.0045-.0157.0137.2301.7059.2804 1.5913.5313 2.2764-.0435-.2702-.0116-.6452-.0752-.9864-.0682-.3654-.3499-1.309-.4404-1.3037zm63.425.0137h.1523c.3777 3.7255-.5322 8.0795-.0762 11.6115.0613.473.3173.8744.4551 1.1377h-4.5527c.5655-1.1687.3789-3.5315.3789-6.0715 0-2.3944.1564-4.6699-.3038-5.919 1.5406-.028 2.8015-.3352 3.9463-.7588zm-95.14.1705c-.3003-.0226-.5394.342-.5479 1.3467-.121.2936-.8327.4246-.3799.835.131.1504.2734-.3296.6074-.2276.0342.8259-.022 1.742.3799 2.2002.1348-.978-.3965-2.6213.6064-2.7314.1046.7175-.3305 1.5323.38 1.6699.569-1.117-.3854-3.043-1.046-3.0928zm11.366.1328c-.2556.3768-.5308.7343-.5313 1.3662.0978.1046.3296.0747.5313.0752.1142-.3176.135-1.1271 0-1.4414zm37.9445.0762c-.0953.031-.1554.0979-.1524.2275.0498 1.6707-.0995 3.5397.0762 5.084 3.2106.4657 3.082-5.416.0762-5.3115zm-47.4295.6826c.1636.8484-.114 2.1372.6064 2.4287-.1352.1433-.2499.3058-.2275.6065.495.694.9933 1.3849 2.2763 1.291.2534.404.3296.9854.6836 1.289-.0085-.3006.1084-.7718.0762-1.1377-.1577-1.7756-1.8417-4.2368-3.415-4.4775zm100.855.9112v.9101c.1259-.1308.1259-.7793 0-.9101zm-96.02.2545c-.6448.0328-1.289.4926-1.4961.9599.059.0168.0884.0632.0761.1514.4833.1747 1.3204-.0045 1.8213.1523.2212-.295-.3933-.2807-.3799-.6074.2149.0127.3164.139.5313.1514-.0025-.3009-.2926-.3142-.455-.4551.2426-.0103.5806.075.5312-.2275-.1989-.0994-.414-.136-.629-.125zm25.747.58c-2.7455 1.8077-6.7015 2.4052-11.079 2.5811-1.053 1.6708 1.4748 1.4503 2.8076 1.3653 3.5043-.2244 6.7685-1.235 8.575-2.5801-.1432-.4134-.121-.9925-.3038-1.3662zm54.655.25c1.9804-.0547 3.8894 1.5589 3.3242 4.7589h-3.7188c.0477 1.3874.5145 2.5243 1.7461 2.3525.9356-.1305.8174-1.5711 2.0489-1.29-.289 1.3138-.5987 2.6175-1.5176 3.415-1.1554 1.0026-3.3762.7639-4.4776-.3037-1.7246-1.6726-1.6773-6.018.0762-7.8165.704-.7223 1.6183-1.0914 2.5185-1.1162zm.5166 1.1524c-1.066-.0732-1.0525 1.6586-1.0625 2.544.3986.3793 1.121.1685 1.5176-.0762.2609-.7132.1824-1.9338-.2276-2.4278a1.201 1.201 0 00-.2275-.04zm-8.3605.0234c-.1134-.0088-.2355-.0035-.3663.0166-.1733.8387-.0285 1.995-.0761 2.959 1.8925.3334 2.1428-2.8431.4424-2.9756zm-68.59.0166c-.043.8172-.2959 1.4239-.3038 2.2764.262.1536.336.1005.6826.0762.1252-.617.1252-1.7357 0-2.3526h-.3789zm60.25.1172c-.1162-.0035-.2406.0072-.375.0342v2.96c1.8258.3478 2.1175-2.9384.375-2.9942zm-8.218.2051c-1.8748.1572-1.5107 6.6295.329 6.4315.2066-1.8538.3871-4.5047.0762-6.375-.145-.0495-.2803-.0671-.4052-.0566zm-44.9755.209c-.2125.439.0303 1.0144.0761 1.4414 1.0581.1814 2.0233.4551 3.1865.5312-.2133-.1976-.3166-1.0886 0-1.5176-1.2433.004-2.1983-.2801-3.2627-.455zm14.95.5302c-.1406 2.44-.0575 5.509-.1524 7.741.6586-1.9718.137-5.125.3037-7.589-.016-.0852-.0838-.1185-.1514-.1523zm-.6836.456c-.2703 2.3605-.1647 5.501-.2276 7.8166.594-2.0371.2477-5.4185.2276-7.8165zm-9.9885.075a.362.362 0 01.2011.0763v.3798c-.1014.1082-.4298.1082-.5312 0-.0737-.2933.1229-.4678.33-.456zm9.004.38c-.3406.0135-.5503.1581-.7588.3038.0379 1.0776-.0505 2.2311 0 3.3388.0725 1.5961-.075 3.2555.3037 4.5537.86-.723.474-2.6297.6064-4.25.1022-1.2487.2155-2.9417-.1514-3.9462zm-1.8115.5225c-.2569.0277-.4243.1439-.6924.1602.1089 2.6737-.2646 5.8295.3027 8.045.2465.044.3531-.0519.5312-.0762.4968-2.1877.3694-5.7135.1524-8.12a1.1129 1.1129 0 00-.294-.0088zm-11.469.3125v.2276c-.0075 1.9386.2078 3.5393.455 5.16.1742 1.1415.3412 2.465 1.2149 2.96-.0506-2.5558-.3225-5.547-.5323-8.1966-.418-.0118-.7542-.1049-1.1377-.1513zm9.6375.0762c-.2653.1647-.8825-.0225-1.1387.1514.1516 2.7319.0278 5.7395.3037 8.3475.4888-.0423.9287-.1335 1.29-.3037-.1112-1.953.0133-4.2593-.0761-6.2225-.031-.6867.002-1.4698-.379-1.9727zm-7.6645.1515c.233 2.777.1166 5.9045.6074 8.424.3895-.0583.5766.1315.8349 0-.1205-2.688-.09-5.5265-.228-8.1965-.339-.1415-.698-.2635-1.2145-.2275zm5.7675.1524c-.5096-.004-.9164.095-1.3662.1513.0527 2.8052.1716 5.545.3037 8.2715.2761.1398.6606-.1739 1.0625-.1514v-8.2714zm-2.9717.0078c-.3061-.0146-.621.0062-.8985.0673.1178 2.7406.1886 5.5285.379 8.1965.467.0641.8675.195 1.4423.1514.1004-2.5804-.0303-5.5845-.0762-8.2715-.2436-.079-.5406-.129-.8467-.1435zm-17.9735.6748c-.4519.9312-.3633 2.1256-.9102 3.1875-.256.4973-.8298.7495-.9863 1.2138-.3902 1.156.0627 2.765-.1524 4.0225-.0492.2862-.3876.6044-.3789.9101.013.4742.4944 1.3208 1.0625 1.2149.2977-3.7372.9681-6.982 1.5176-10.3965-.1006-.001-.07-.1336-.1523-.1524zm44.7745 0c-.1094.0427-.1853.1184-.2276.2275.0178 4.3834.1213 8.6815.0752 13.129 6.638 1.3516 7.583-8.596 3.795-11.99-.8773-.7859-2.2646-1.2998-3.6427-1.3662zm-40.374.1396c-.2021-.01-.4163.0219-.5293.0879v.2275c.3688.0479.7946.1434.9863-.1513-.0652-.1024-.255-.1541-.457-.164zm.8359.2393c-.6248.4884-.4183 1.8079-.455 2.8838.1762-.4556.026-1.2386.076-1.8213.2116-.0668.4622-.0947.6075-.2276-.266-.0877-.1667-.5424-.2285-.835zm-3.1865.6836c-.1878.0652.0218.5285-.1523.6074h.3037c-.0625-.1906.148-.654-.1514-.6074zm.6065 0c-.1174.11-.0671.3888-.0762.6074h.3037c.0122-.2906.0452-.6023-.2275-.6074zm-1.1387.1513c-.1095.1178-.1593.2964-.2275.456h.3037c-.0437-.1333.0914-.4465-.0762-.456zm26.6375 4.4014c-.001.1006-.1335.07-.1523.1523-1.6882 1.466-5.63 2.3733-8.7275 2.504-1.1868.0501-2.3725-.1115-1.8965 1.2148 1.78.2838 4.0743.08 6.0715-.3799 1.6408-.3777 3.9617-1.0778 4.5527-2.2764.1734-.3518.249-.7952.1524-1.2148zm-13.281 2.5049c-.0156.5971.1846.9796.3799 1.3662.6722-.0146 1.1235.1915 1.8213.1514-.2182-.2025-.3171-1.0891.1514-1.3662-.8812.0464-1.502-.1674-2.3526-.1514zm12.5975.455c-.326 1.0659-.747 2.4397-.6826 3.6427.2299-1.1182.8238-2.6573.6826-3.6426zm-9.6375.2276c.0826.1522.4004.504.5313.1514.2103.1427-.0617.4386-.2276.456-.3188.0261-.4863-.369-.3037-.6074zm8.6515.3037c-.1376 1.2289-.6714 2.4654-.5312 3.7188.4437-1.0488.5556-2.4296.7588-3.7188h-.2276zm-.9111.2276c-.6857.9584-.5425 2.745-.834 4.0976.7206-.1633.6283-1.167.7588-1.8213.1494-.7515.3508-1.56.3789-2.2763h-.3038zm-1.1397.453c-.1996.0282-.3259.13-.5293.1544-.221 1.2715-.4252 2.5592-.455 4.0215.8655-.045.712-1.1287.834-1.8213.139-.79.3527-1.6447.3798-2.3526a.8101.8101 0 00-.2295-.002zm-1.4404.382c-.361.0691-.6885.1713-1.0625.2275v4.0224c.3607.0316.5475-.1108.8349-.1523.067-1.2765.5853-2.9014.2275-4.0977zm-6.754.303c.0545 1.6733-.0625 4.1538 1.2138 4.3251-.0508-1.4921-.1134-2.9715-.3789-4.249-.2127-.091-.5237-.0837-.835-.0762zm2.2314.0683c-.2464-.0061-.478.0025-.6377.083.0976 1.4453.1196 2.9674.3799 4.25h1.2138c.0402-1.3413.0419-3.0663-.2275-4.3252-.2209.0194-.4822-.0015-.7285-.0078zm1.6387.0078c-.227 1.129-.0645 2.8655 0 4.1728.437.0328.7233-.0855 1.0625-.1513v-4.0215h-1.0625zm-4.7803.0752c-.0593.2627-.0181 1.011.2275 1.2148.117-.3619.0542-1.0183-.2275-1.2148zm-16.7715.1523c-.3848.1366-.7804-.0357-1.0625.0752-.0077.2354.0925.3627.1514.5313.539.033.9317-.0799.9111-.6065zm28.1545 2.124c-2.2098 1.5843-5.2315 2.3572-8.7265 2.6563v.6074c3.3877.4493 6.234-.9466 8.499-2.125.1135-.367.3997-.5615.379-1.0625-.0167-.0593-.0631-.0884-.1515-.0762zM9.351 42.3922a.1723.1723 0 00-.08.001.1513.1513 0 00-.0782.0518c.3722.6072-.0259 1.2668-.379 1.5937.0418.5906.4526.8129.835 1.0625-.204.2007-.4915.3186-.5312.6836.111.268.3363.4211.3027.834.189.0639.4073.0995.6836.0762.2392-.3498.7276-1.1994.2276-1.5937-.0115.3931.0776.8875-.2276.9873-.3763-.3598.1747-.8282.1514-1.3662-.0123-.2827-.4011-1.2647-.455-1.8223-.0148-.1518-.2549-.4675-.4493-.5078zm-.5908.0069c-.2626-.0178-.6225.2454-.4023.501.0525-.276.396-.2615.6074-.379-.041-.0792-.1176-.116-.2051-.122zm-5.6555.1718c-.2137.0052-.4059.4296-.666.4815-.0905.3275.249.4254.0762.6074-1.0061.1067-1.563.6628-1.67 1.669.7472.5032 1.1225-.4317 1.7462-.5313.0907-.2127.0827-.524.0752-.835h.456c-.1087-.5578.2415-.996.0752-1.3652-.0317-.0187-.0622-.0271-.0928-.0264zm5.549.252c-.244-.0103-.4823.1706-.4473.457.2785-.0757.3862-.3217.6826-.3799a.453.453 0 00-.2353-.0771zm.1953.3281a.3781.3781 0 00-.1064.005c-.2437.0436-.5157.2952-.3086.5038.1071-.1966.2455-.362.6074-.3037-.0123-.1332-.0916-.194-.1924-.205zm20.3025.7364c.176-.0245.2908.0115.379.0752v.3799h-.4552c-.01-.1868-.0112-.3658.0762-.4551zm5.3125.1513c-.3066.0226-.5928.0658-.6836.3037.146.3234.7629.0745.6836-.3037zm-1.5722.4551c-.225-.0064-.4871.1186-.4014.3799.268-.0354.7306.124.6826-.2275-.0252-.097-.1463-.1485-.2813-.1524zm-1.373.3057c-.141-.0223-.295.0835-.4708.0742v.3037c.3297.0263.5501-.0576.6074-.3037-.0445-.0448-.0898-.0668-.1367-.0742zm-1.2296.1504c-.4285.0269-1.0166-.1064-.9863.3789.2743.0488 1.0666.1585.9863-.379zm-29.7475.151c-1.3063.6481 1.018 2.5516 1.0625.7588-.7066.0994-.7259-.4884-1.0625-.7588z"/><path fill="#561b0d" d="M45.7766.0003C41.7793-.0249 39.669 1.3255 37.04 3.2865a6.2243 6.2243 0 01-.4317.4795 6.1857 6.1857 0 00.4307-.4795 6.1877 6.1877 0 00-.9102.9111c-2.0341 2.2662-3.4007 5.1995-4.3252 8.575-1.3462-.222-3.2082.0705-4.5537-.1523-.0998-.229-.0517-.6049-.1513-.834-1.2911-1.2305-3.274-2.0519-5.54-2.2764-.4066-.0405-.9542.1054-1.29-.2285-.1985-.4795.1555-1.1003-.1524-1.5176-.2149-.3162-.9666-.095-1.2139-.3789.1184-.4477.6079-1.1558.4551-2.125-.0974-.3324-.5554-.3046-.6826-.6074.6013-3.379-4.8747-3.5734-5.54-1.29-.1827.6266.1078 1.3213-.1514 1.9726-.0903.2271-.3392.3103-.3799.5323-.219 1.1974.862 1.5643.6074 2.58-.8171.3578-1.6574.0001-2.4287.2276-.6432.19-1.0845.964-1.745.9864-.099-.8073.1594-1.2573.1513-1.9737-.4228-.541-1.6522-.4214-2.124 0 .2999 1.319.2913 3.266.1514 4.7813-.3578.556-.9978 1.143-1.1387 1.8974-.0747.3999.059.7738 0 1.1377-.0606.3744-.393.7236-.5312 1.1387-.1014.304-.0618.6258-.1514.835-.2453.5731-.9882.8948-.7588 1.8212-.5206 1.2413-1.201 2.3344-1.3662 3.9463-.0875.8553.3529 1.759.2276 2.5801-.0758.4958-.6205 1.1444-.4551 1.8975-.372.1087-.901.061-1.2149.2275-.219.363-.1407 1.0227-.1513 1.5938v1.669c-.0305 1.1434.2215 2.0042.1513 3.1874.1263.4313.1263 1.3898 0 1.8213.0761 1.6189-.0784 3.007-.5302 4.0977.3295.151.7726.189.9101.5322-.054.7452.2713 1.0476.2276 1.5166C2.295 43.872-.1368 44.1692.006 45.7844c.0774.8745 1.4592 1.2732 2.2773 1.2139 1.2923-.0933 2.2153-1.578 2.8076-2.125.8059.1735.7687-.4963 1.3662-.5313.4394 1.1387 1.2039 2.5112 2.6563 2.6563 2.5783.2577 1.6397-3.6903.6826-4.9326-.3517-.4562-.9472-.4442-.6074-1.2139.3878.3088.275-.5792.5312-.835.9354-.2498 2.698-.2522 4.3262-.2285.1765 1.6278.0107 3.7235 1.2138 4.0987.4461-.1862.2668-.9984.3037-1.5938-.1737-.13-.028-.5794-.0761-.835V31.4408c.0367-1.0758-.1698-2.3953.455-2.8838.0619.2926-.0385.7472.2276.835.4447-.0107.618-.293 1.0625-.3037-.2107.27.0635 1.025-.1514 1.291-.416.0895-1.1986-.187-1.3662.1513-.1674.0097-.0317.3221-.0752.4551.0615.4497.693-.0527.9864.2276-.6094.118-1.1964.513-.9112 1.29.5377-.0703.934-.6833 1.3662-.6064-.0638.4925-.0991 1.0134-.0762 1.5927-.4174.0382-.9941-.0833-1.29.0762-.0233.2767.0123.4944.0762.6836.1308.2231.78-.0718.9111.1514-.5766.262-1.2434.564-.9111 1.5176.2848.08.7807-.6841 1.1386-.5313-.172.233.0359.8457-.1523 1.0625-.3206.084-.988-.1781-1.0625.1523-.061.2633.1133.2917.0761.5313.0817.2218.677-.07.7588.1514-.4623.5463-1.0549.935-.7588 2.0488.282.002.6606-.9554.9864-.9101-.2317 1.2018.1383 2.2982.3037 3.3388.4105.0206.4523.0648.835 0 .6542-2.862.3393-6.6925.7587-9.789.1408 3.5174 1.1362 6.1815 2.0489 9.0305.291.9083.5671 2.135 1.0625 2.6563.4866.512 1.724.944 2.8838 1.29 1.7256.5153 3.3413 1.0617 5.009.9864.3068-.0139.6305-.249.9863-.3037.3238-.0494.5857.0624.835 0 .308-.0767.54-.3313.835-.379.2312-.0373.5357.1082.7587.0752.2226-.0326.3767-.3045.6826-.3789.2287-.0553.5045.0649.6826 0 .4062-.1478.8887-.6335 1.3662-.835.6697-.2822 1.0652-.4136 1.5176-.7587.6395-2.0674 1.17-4.244 1.7461-6.375 7.8605 7.928 21.596 11.0785 37.792 10.3205 8.445-.3953 15.369-2.527 21.4005-6.298 5.652-3.5338 10.162-9.6775 10.624-18.0615v-.9102c-.2249-7.033-3.059-11.3315-6.6025-14.875-3.525-3.5184-8.485-5.5815-14.425-5.843-3.26-.143-5.88.5226-8.425 1.139-2.1452.5192-4.1955 1.4151-6.5265 1.5175-1.6307.0718-3.2583-.414-4.8564-.456-.4023.4242-.3364 1.068-.6074 1.5185-.6687 1.1113-2.7535 1.6049-4.629 1.4414-3.1125-.2714-5.1864-2.191-7.589-3.7187C52.8362 1.2239 49.8516.1866 46.5936.024a19.0083 19.0083 0 00-.8252-.0234zm-.1595.7568c3.4127-.0444 6.588 1.1464 8.876 2.5293 2.5937 1.5673 4.7788 3.6546 8.121 3.9463 3.1175.2718 5.4235-.6412 5.919-2.959 4.2489 1.2785 7.8195-.2764 11.383-1.1386 2.193-.5307 4.5011-1.0465 7.134-1.0625 6.6485-.0403 11.065 2.3047 14.5705 5.54 3.7397 3.4511 6.896 8.599 6.5265 16.0115-.3598 7.221-4.8061 12.955-9.4865 16.164-5.088 3.4889-11.354 5.74-19.123 6.5265-16.2925 1.649-32.296-1.8173-40.297-10.3205.1444-.3362.1103-.8502.2275-1.2139.1856-.1436.5204.3014.7588.5313 3.9479 3.8026 8.8225 6.694 15.1775 8.2715 9.9655 2.4737 24.0365 2.8131 33.618-.1514 6.2345-1.9291 11.5415-5.1225 14.799-10.245 1.82-2.862 3.5117-6.3585 3.2627-10.8525-.2506-4.5316-2.1585-8.5425-4.5537-11.3065-2.3603-2.7237-6.024-4.8698-10.699-5.16-6.5805-.4087-10.5425 2.144-14.2675 4.4766-.0866-1.5323-.061-3.1766-.1514-4.7051-1.1806.3625-2.428.659-3.7949.835.3422 2.9223.5288 7.233.2276 10.7-.0378.4352-.061.6619-.2276.9863h4.0987c.0573-.311-.2326-.5024-.3037-.9102-.2155-1.2358.1032-3.2011.0761-4.4013.6385 1.6888.9927 3.6605 1.5928 5.3875h3.8711c-1.292-2.047-1.8602-4.8183-2.4287-7.589-.6928.1164-1.173.4463-1.8213.6074 3.2075-2.2393 6.615-4.25 11.7625-4.25 7.1955 0 12.0615 4.2768 14.1905 9.714.7434 1.8975 1.343 4.2774 1.291 6.6015-.1016 4.5278-2.1982 8.429-4.6299 11.2315-1.1715 1.35-2.4562 2.4869-4.25 3.7187-1.4581 1.0012-3.3346 2.4191-5.615 2.2764-2.205-.1374-4.3667-1.6246-5.7675-2.8076-1.62-1.3686-2.8778-2.8356-3.6426-4.8565h3.0362c-.2248-.895-.121-2.5222-.0762-3.7949.5222 1.122 1.1987 2.09 1.2139 3.7188 1.166.175 2.6546.0273 3.9463.0761-.7426-1.458-1.4929-2.909-1.8975-4.705-.5999.0327-1.1496.1153-1.8213.0761 1.0838-.4655 2.3116-.607 2.6563-1.6699.487-1.5012-.568-3.0597-1.9727-3.3388-1.7198-.3418-3.8762.1321-5.6925-.0762.825 2.1744.1165 6.12.3037 9.1065-.662-1.2099-1.1556-2.588-1.4414-4.1739-.4044-.0188-1.3298.319-1.9726.0762 1.6125-.3374 3.2117-1.175 2.6553-3.1113-.7274-2.531-4.3027-1.8285-7.664-1.8975.5194 1.1002.3789 2.8498.3789 4.8574 0 1.7774.1527 3.451-.2276 4.7051h3.4903c-.1734-.6902-.2395-2.5383-.0752-3.5674 2.1922 6.7115 5.7085 12.1 14.7225 11.99-7.841 3.533-21.1415 3.9707-31.342 2.2774 4.528-.933 7.4985-4.794 6.2225-10.549.0142-.086.0756-.042.0752 0 .9298.2923 2.1472.2939 2.8086-.2276.7517.4628 2.3046.1242 3.415.2276-.4724-2.67-.0682-6.238-.0761-9.1825-.4651-.1937-.9704.1723-1.4424.1523-1.1022-.0466-1.7507-.8381-2.959-.6836-.7887.1008-1.839.7597-2.2774 1.2139-1.03 1.068-1.5065 3.0082-1.29 5.009-.272.1486-.3649-.2451-.5313-.379-1.4854-1.1934-3.6224-1.9655-6.374-1.9726 2.1328-.3305 4.0254-.7946 4.5528-2.581.5995-2.0308-.5209-4.5853-2.2002-5.3125-1.3961-.6043-3.4668-.5303-5.3885-.5303-1.9292 0-3.9692-.1196-5.6915.1514-.0868.389.3394.694.455 1.2138.1669.7484.0197 1.622.1524 2.2774.7977.1322 1.3692-.1094 1.9726-.456.6774-.3895 1.4705-1.7353 2.0498-1.5177.9593.3606-.482 2.9513-.9873 3.5674-.7135.8701-1.8981 1.209-2.959 1.8213-.2275 4.5788.075 9.688-.1523 14.2665-2.3591-.0646-4.0155-1.5892-5.54-2.8076-1.565-1.2504-3.1308-2.593-4.4004-4.0986.0148-2.8938.302-5.5155.2275-8.499.1862-.1097.6478.2022.9864.3789 1.3656.7125 3.0605 1.3108 5.464 1.1386 3.6955-.2646 6.5655-2.2667 7.3615-5.3125-1.3356.6655-1.57 1.7515-3.2637 1.9737-3.1246.41-5.7785-1.2172-7.3615-3.1875-2.7789-3.4587-3.9942-11.038.1524-14.343.8205-.6539 2.7561-1.63 3.9463-.6826.6038.4805 1.0702 1.6758.6826 2.6552-.42 1.0609-1.8606 1.1404-2.3526 2.2774.8867.1336 1.1972-.4716 1.8975-.7588 1.6396-.6723 3.43-.607 5.3875-.6074.2793-.0002.8237.2932.835-.3037-.2893-.4665-.9863-.3367-1.2901-.6826-.28-.3189-.2976-.8385-.4551-1.1387-1.29-2.451-4.0485-3.8306-7.5195-3.5673-5.62.4264-9.2205 5.677-10.3965 10.7005-.4926-.0387-.9312-.1313-1.3662-.2275.957-3.4895 2.0916-5.96 4.0986-8.12 1.81-1.9482 4.4754-3.715 8.1955-3.9463a13.982 13.982 0 01.6856-.0254zM15.997 2.31c.8088-.0035 1.6871.3796 1.7666 1.0527-.2465.2345-.8587.1021-.9864.4551-.0095.136.0932.1602.0762.3037.4706.0407.625-.234 1.1377-.1513.5515.302-.2828 1.5818.456 1.745-.096.2076-.12.4866-.2275.6827.0144.2134.2478.208.3037.3799-.1898.5582-.7132.594-.9873.9101-.306-.1241-.3403-.5189-.6826-.6064-.3898-.0101-.4614.2976-.835.3037-.2868-.2572-.0862-.9446.1514-1.1387.2425.0864.3102.3484.456.5313.4225-.1088.6648-.3968 1.1378-.4551-.0611-.2633.1133-.2917.0761-.5313-.2391-.216-.702-.208-1.1377-.2275.1611-.7023-1.058-.6553-1.6699-.835-.0344-.3633.0548-.6028.2276-.7588.4473.1347.622.5412 1.3662.379.1834-1.3218-1.2783-.9985-1.8213-1.5938.2473-.302.707-.443 1.1924-.4453zm-1.041 4.3164c.2547.0694.0378.1405.0761.3789-.3394.0126-.1961-.2664-.0761-.379zm1.9238 1.166c.0649.0141.121.057.2012.124-.001.1158-.5622.166-.4551-.0762.1155-.0476.189-.062.2539-.0478zm.8838.4277c.2123.5851-.6037 1.4601-1.2138.9864.066-.3017.066-.3818 0-.6836.4603.0318.7347-.1792 1.2138-.3028zm1.5186 0h.2275v.9864c-.3744-.03-.1775-.632-.2275-.9864zm-11.3075.3028h.5312c.3924.77.0459 1.8486-.3799 2.2773-.2196-.299.042-.766.1524-.9873-.1206-.4107-.4277-.635-.3037-1.29zm78.48.0185c-2.5118-.1077-3.9457 2.4195-4.1123 4.6114-.1206 1.5904.2887 3.6468 1.3662 4.5527 1.0737.9035 3.1255 1.1545 4.25.3037.996-.754 1.303-2.1961 1.6689-3.4912-1.3257-.3133-1.1594 1.2758-2.2763 1.29-.9964.0125-1.5303-.9833-1.5176-2.3525 1.2162-.0488 2.6274.0994 3.7177-.0752.3327-2.5263-.7993-4.4646-2.5801-4.7812a3.8997 3.8997 0 00-.5166-.0576zm7.4315.0205a29.2093 29.2093 0 00-1.0225.001c-.9193.015-1.8547.0562-2.7051.0362.5823 1.0622.379 2.859.379 4.8564 0 1.8355.1013 3.588-.1515 4.7051h3.5674c-.322-.903-.3398-2.7967-.0761-3.794.4558 1.2392 1.1144 2.2747 1.2138 3.8702h3.8701c-.6699-1.2538-1.5907-2.9103-1.9726-4.7051-.6632.059-1.3919.2569-1.8975-.0762 1.5663-.207 2.7575-.6256 2.8838-1.9727.2273-2.4286-1.7447-2.8769-4.0888-2.9209zm-42.298.0791c-.8722.0105-1.7736.0439-2.6367.0342-.0192.399.3772.7019.455 1.1377.4044 2.2605-.209 6.614-.1513 8.5h3.5664c-.3337-.814-.3425-2.7311-.0762-3.6426.3516 1.2421 1.166 2.0216 1.1387 3.6426h3.87c-.6146-1.284-1.5384-2.912-1.8964-4.705-.6227.052-1.511.3274-2.0498 0 1.8643-.1685 3.2605-.9438 3.0361-2.6563-.2837-2.1668-2.6393-2.342-5.256-2.3106zm18.749.0371c-1.3105-.0315-2.506.499-3.4004 1.5147-1.8434 2.0932-1.6244 6.5685.7588 7.968 2.301 1.3516 6.0275-.676 5.3125-3.4903-1.1538.2309-1.277 1.3187-2.2012 1.29-1.8977-.0586-2.2975-6.203-.5312-6.2234.6121-.007 1.1292.909 1.3662 1.5937.2259.6511-.0185 1.8946 1.0625 1.7461.1856-1.068.0119-2.7668.0761-3.7187-.8292-.4396-1.657-.6608-2.4433-.6797zm-8.966.1055c-2.3576-.0725-3.992 1.9553-4.2237 4.2168-.3384 3.303 1.4435 6.4305 4.7041 5.085.742.4254 2.5114.215 3.4912.1514-.4874-2.5317-.1054-6.309-.2275-8.955-1.5606.266-2.3072-.3144-3.2637-.4551a4.1687 4.1687 0 00-.4805-.043zm32.783.9385c1.6493.1251 1.4853 3.1627-.3536 2.8985-.1253-.7909-.1253-2.092 0-2.8828a1.5483 1.5483 0 01.3536-.0157zm-77.27.0107c.0495-.0136.113-.0132.1943.005.165 1.0054-.479 1.843-.9864 2.4277-.0217-.4337-.4845-.4253-.455-.9102.2352.0075.3616-.0934.5302-.1523.0226-.3008-.0925-.4631-.2275-.6064.2544-.2736.3297.2733.6074.2275.324-.1188-.0102-.8956.3369-.9912zm69.735.0675c.1268-.0045.2692.023.4277.0899.2761.689.3207 1.5775.1514 2.3525-.309.2481-1.097.4762-1.5176.1514-.0981-.9395.0505-2.5614.9385-2.5937zm-67.83.0285c.2479-.0122.5543.117.7217.213-.0103.7485-.1524 1.3658-.3038 1.9736-.1393-.1137-.1897-.317-.3798-.3799-.1785.0239-.0442.3598-.3028.3037.0015-.1789-.131-.2234-.0761-.455.1618-.0912.413-.0927.455-.3038-.045-.4862-.2386-.8238-.455-1.1386.0645-.1479.192-.2056.3408-.213zm34.409.0245c1.3682.2046 1.2554 3.3694-.6006 2.8447-.1728-.7633-.0287-1.8427-.0762-2.7314.2551-.111.4813-.1425.6767-.1133zm-35.206.1884h.2285c.055.2319-.0777.2774-.0762.456-.1325-.0697-.168-.2377-.1523-.456zm3.0703.0508a1.197 1.197 0 01.3447.0254c.1221.0279.25.2044.3799.2275.6625.1192 1.6377-.078 2.2763.1524 1.3417.4845 2.931 1.8163 2.2764 2.7314-.6567.0243-.514-.749-1.0615-.834-.1455.101.0869.336-.0762.5303-.2582.1467-.6283.1817-.5313.6836-.4218.0423-.686-.0722-.6826-.455-.486-.374-1.0348-.6863-1.0625-1.5186.458-.0983.9335-.1793 1.5176-.1514-.8687-.4888-1.5574.177-2.2773.3037-.209-.1368-.1774-.5977-.0752-.835-.3283.2284-.374.7391-.9112.7589-.0594-.3125.1167-.3891.0762-.6826-.1401.1634-.07.5365-.455.455.0648-.1547-.0666-.4714-.1524-.2275-.1536-.062.0483-.4002.0762-.5312-.4385.0423-.2044.7564-.5313.9101-.5625-.1403-.2352-1.189 0-1.4414.2639.049.542-.0804.8692-.1016zm-11.038.0254c.3731.1649.6692.8445.3798 1.2139-.435.0563-.6621-.2415-.9873-.0752.009.6398.6921 1.0858.6836 1.8213-.0075.6536-.3353 1.184-1.1386 1.29-.204.2512-.3992.5107-.455.9102.0817.2215.361.2457.6825.2275-.3672.7171-1.3101.3365-2.0488.456.2506.3058.8784.2347.835.835-.3086.15-.452-.436-.9864-.3037.1614.5523 1.1932.879 1.29 1.4414.1334.7764-.6105.6906-1.1386 1.1386.1569.3017.2086.6391-.0752.835-.476-.2833-1.0517-.4668-1.7461-.5313.0186-1.0308.6344-1.8283 1.746-1.5176-.1195-.4625-.649-.5149-.911-.8349-.0875-.9223.3725-1.2976.6073-1.8975.402-.1292.919-.1427 1.3653-.2275-.5687-.554-1.0654-1.9933-.1514-2.6562.208.0687-.1483.2794.1514.3037.5714-.0358.4617-.7533.6074-1.2149.4245-.4101.759-.91 1.29-1.2138zm51.69.125c.069.0015.1401.0108.2148.0274.267.8719.1514 2.0787.1514 3.2627 0 1.1142.1768 2.3507-.2276 3.1113-1.7327.433-2.2786-6.453-.1386-6.4015zm-49.871.1787c.1638.5195.479 1.2047.3789 1.7451-1.0713.7968-1.7102-1.8038-.379-1.745zm1.2138.6074c.339.0152.3623.3458.6074.4551.7685-.2983 1.174.2466 1.4424.6826-.6313-.2155-1.4849.0736-2.0498-.0752.0803-.4153-.2127-.7557 0-1.0625zm4.8184.1045c.2072.0045.3912.2036.418.7295-.3472.1081-.4742.4367-.6827.6836-.7578-.4883-.1912-1.423.2647-1.413zm4.1308.9033c.6228.024 1.2772.8134 1.1446 1.6475-.2197.3061-.9953.3061-1.2149 0 .07-.677-.2442-.9693-.6826-1.1377.1934-.3732.4699-.5207.753-.5098zm-6.1095.9248c.0835.0045.1736.0175.2715.04-.185.4533-.2898 1.3589.2285 1.5176.295-.312.3626-.8507.6826-1.1377.4234-.0439.671.0876.9864.1514-.0928.388-.4948.466-.7588.6826.231.7555.9991.9743.7588 2.2012-.3214.0178-.3851-.2213-.6065-.3037-.3696.9632.2203 2.2141-.0762 3.3388-.7357.088-1.7915.3099-2.3525-.0752.0025-1.0697-.8622-2.3954 0-3.1875.1362-.0097.1602.0932.3037.0762.1346.1437.0546.5012.0752.7588.3659-.4436.5452-1.0753.6836-1.7461-.3007.0787-.2806.479-.455.6836-.6223.0405-1.0005-.164-1.5938-.1524.2087-.372.1718-.6533.2275-1.0625.1702-.2727.514.5303.9101.5313-.2251-.5569-.5375-2.3867.7149-2.3164zm4.6055.0371c.2332-.011.4643.0303.5996.1553.503 1.5902-.9183 2.5039-.9112 4.0976-.7037-.2634-.1174-1.1505-.2275-1.8974-.4653.1923-.237 1.0788-.38 1.5937-1.1724-.7618.3742-2.4809.3038-3.794.1458-.0808.382-.1442.6152-.1552zm8.4725 1.1797c.1994.0035.408.0153.626.0371-.8017.7857-2.1767 1.1636-3.794.9112.8086-.5638 1.7718-.9722 3.168-.9483zm3.7304.0684c.2703.0045.5505.0192.8418.0449-.6185.2874-1.1969 1.0614-2.0488 1.2138-1.0395.1864-2.1932-.2516-3.3389-.2275 1.2538-.6057 2.654-1.0639 4.5459-1.0312zm-6.5955.121c.0674.3207-.0773.4287-.2275.5313-.3778.0742-.4516-.155-.6826-.2275.1806-.2244.5156-.2932.9101-.3037zm8.3025.2179c.1747.0127.3459.062.501.161-.1771.5154-1.2356.5229-1.8213.38.2412-.285.7962-.579 1.3203-.541zm1.457.7519c.214-.0135.4541.1115.334.3965h-.5312c.0065-.1075.0122-.2157-.0762-.2285.0257-.1022.145-.1599.2735-.168zm-11.743.0742c.2681.009.5523.163.542.3975-.1106.2243-.7744.194-.9863.0761-.0755-.346.1763-.4825.4443-.4736zm10.8536.165c.1867.0253.3383.1153.3125.3087-.1999.073-.6504.1466-.835 0v-.2276c.1137-.0667.3357-.1063.5225-.081zm-9.589.0616c.2292-.0185.4958.058.5674.1709.1017.499-.6821.2827-.9102.2285-.0779-.2668.1135-.381.3428-.3994zm8.2665.0088c.2621.0131.5001.156.4209.4658-.423-.0324-.8217.2272-.9864-.1514.0174-.2107.3033-.3276.5655-.3144zm-14.9845.0107c.1225-.0215.1304.0722.2275.0762-.1176.3006-.0752 1.3811-.455 1.669-.1754-.5448-.0872-1.4418.2275-1.7452zm13.4385.0596c.2429.0015.4584.0843.4492.3203-.0734.4596-1.1515.4098-1.0625-.1524.0999-.0895.3703-.1693.6133-.168zm-5.218.0576c.3064-.0167.5612.02.8857.1103v.4551c-.3933-.0363-.9413.0824-1.2138-.0752v-.456c.118-.0174.226-.0286.328-.0342zm2.0722.0166c.1668.002.3372.013.4834.0176.0872.2125.0872.3947 0 .6074h-1.1386c-.3137-.5596.1548-.6317.6552-.625zm2.1524.0176c-.055.2318.131.2238.0761.456-.375-.018-.8204.2034-1.1386 0 .031-.1828-.1379-.1652-.0752-.3798.3208-.084.7214-.0879 1.1377-.0762zm5.6915 0c.2439.1354.1019.657.3037.835-2.3676 1.081-6.223 1.4552-9.5615 1.0624-.1465-.1844-.073-.635 0-.835 3.2027.0598 6.8855-.0407 9.258-1.0624zm-13.4315.3799c1.2209.2713 2.46.5248 3.87.6074-.184.19-.2182.7257 0 .9101-1.2624.048-2.8114-.2747-3.9462-.6074-.0837-.3983.0213-.5063.0761-.9101zm-9.9415.455h.2275c-.0413.3762.2582.7102.0762.9864-.4124-.0176-.2812-.579-.3037-.9864zm.6074 0c.2625.1675.24.6199.3037.9864-.4885.086-.4305-.7015-.3037-.9864zm13.8865.5313c-.228.308.1783.601.456.3799v-.3037c-.0897-.0874-.2689-.0863-.456-.0762zm8.424.455h.2275c.3315 1.6452 1.26 3.4915 1.1386 5.085-.6918-1.4583-.7013-3.5997-1.3662-5.085zm-.9864.2286h.1514c.8906 1.3099 1.188 3.2138 1.4424 5.16-.1698.2093-.3615.3969-.7588.3789-.187-1.8887-.617-3.934-.835-5.539zm-12.294.0752c.289.0903.6589.1002.9112.2275-.0912 1.8569-.2745 3.6226-.4561 5.3885-.4983-1.6578-.4993-3.7384-.455-5.616zm11.3205.164c.105.0084.2048.029.291.0635.2947 1.7904 1.0144 3.5235.9102 5.464-.324.1819-.7577.254-1.2139.3037-.1886-1.9614-.1378-4.162-.835-5.615.1722-.1553.5329-.241.8477-.2158zm-9.508.13c.1899.0189.3126.1048.54.0859.085 1.9157-.0662 4.2268-.2275 6.1465-.4493.0445-.7353-.0737-1.0625-.1514.1186-2.082.3126-4.0892.5313-6.0715a.7892.7892 0 01.2187-.0098zm1.8936.1327c.2989.007.6275.0737.7715.1045-.1337 2.0166-.1846 4.1165-.1524 6.299-.5194.0388-.8258-.1349-1.3652-.0761.073-2.0011-.1632-4.3106.1513-6.0705.0262-.2103.2958-.2638.5948-.2569zm-7.576.0284h.6064c.0982 1.2964-.4844 2.5445-.6826 3.7949-.1581-1.1451.065-2.5665.0762-3.795zm11.914 0c.3384 1.7394.355 4.1938.3798 5.995-.2413.1612-.8982.2346-1.2148.0761.0498-1.9588-.3811-4.2065 0-5.995.2127-.0909.5238-.0836.835-.0761zm1.8213 0c.5426 1.582.546 3.7049.6836 5.6925-.3207.236-.7283.3842-1.2901.3789-.0502-2.024-.4129-4.1409-.3799-5.995a3.4949 3.4949 0 01.9864-.0762zm-4.7803.0761h1.3653v6.1475c-.2995.1495-.997.2403-1.3653.0752v-6.2225zm9.7285 1.5791c.0907-.0052.372.9395.4404 1.3047.0637.3414.032.7162.0752.9864-.2508-.6851-.3011-1.5703-.5312-2.2764.004-.0092.0096-.0143.0156-.0146zm63.425.0147c-1.1448.4236-2.4057.7307-3.9463.7588.4602 1.2492.3037 3.5245.3037 5.919 0 2.5397.1858 4.9025-.3799 6.0715h4.5537c-.1377-.2633-.394-.6645-.455-1.1377-.456-3.5316.4539-7.886.0761-11.6115h-.1523zm-95.14.1705c.6605.0497 1.6149 1.9747 1.0459 3.0918-.7104-.1376-.2753-.9515-.3799-1.669-1.003.1101-.4714 1.7534-.6064 2.7315-.4019-.4582-.3457-1.3742-.38-2.2002-.334-.102-.4763.378-.6073.2275-.4529-.4101.2589-.5414.3799-.835.0084-1.0047.2476-1.3692.5478-1.3466zm11.366.1328c.1348.3143.1143 1.1237 0 1.4414-.2016-.001-.4334.0293-.5312-.0752.0005-.632.2754-.9895.5312-1.3662zm37.9445.0762c3.0059-.1044 3.1345 5.7775-.0762 5.3115-.1755-1.5444-.0265-3.4136-.0761-5.084-.003-.13.0572-.1965.1523-.2276zm-47.4295.6826c1.5734.2409 3.2573 2.702 3.415 4.4775.0323.3657-.0846.837-.0761 1.1377-.354-.3036-.4302-.885-.6836-1.289-1.283.0945-1.7815-.5965-2.2765-1.2905-.0224-.3005.0923-.4632.2275-.6065-.7205-.2915-.4428-1.5803-.6064-2.4287zm4.835 1.165c.2149-.011.43.0257.6289.125.0494.3026-.2886.2172-.5313.2275.1625.141.452.1543.455.4551-.215-.0124-.3161-.1387-.5312-.1513-.0132.3267.6009.3123.38.6074-.501-.1568-1.3383.0224-1.8214-.1524.0123-.0881-.017-.1346-.0762-.1513.2073-.4673.8513-.9271 1.4961-.96zm25.747.5801c.1828.374.1606.9527.3037 1.3662-1.8066 1.345-5.071 2.3558-8.575 2.5801-1.3329.0852-3.8606.3056-2.8076-1.3652 4.3776-.176 8.3335-.7733 11.079-2.581zm54.655.25c-.9002.025-1.8145.394-2.5186 1.1162-1.7536 1.7985-1.801 6.1435-.0762 7.8165 1.1012 1.0676 3.3222 1.3065 4.4776.3037.919-.7973 1.2286-2.1014 1.5176-3.415-1.2316-.2811-1.1133 1.1598-2.0489 1.29-1.2318.172-1.6974-.9651-1.745-2.3525h3.7177c.5652-3.2-1.3438-4.8136-3.3242-4.7588zm.5166 1.1524c.071.005.1465.0183.2275.04.4101.494.4882 1.7145.2275 2.4277-.3965.2448-1.1187.4555-1.5176.0762.0102-.8854-.0035-2.617 1.0625-2.544zm-8.3615.0234c1.7004.1324 1.4511 3.309-.4415 2.9756.0477-.964-.097-2.1203.0762-2.959.1308-.0202.2519-.0255.3653-.0166zm-68.59.0166h.3789c.125.6169.125 1.7356 0 2.3525-.347.0243-.421.0775-.6826-.0761.0079-.8525.2606-1.4593.3037-2.2764zm60.25.1172c1.7425.0556 1.4508 3.342-.375 2.9941v-2.96c.1344-.027.2588-.0378.375-.0341zm-8.218.205c.125-.0104.2601.0072.4052.0567.311 1.8702.1304 4.5211-.0761 6.375-1.8398.1979-2.2039-6.2745-.3291-6.4315zm-44.9755.209c1.0642.175 2.0194.4591 3.2627.4551-.3169.4287-.2133 1.32 0 1.5176-1.1635-.076-2.1285-.3498-3.1865-.5312-.0459-.427-.2887-1.0024-.0762-1.4414zm14.95.5303c.0676.0338.1353.0671.1513.1523-.1666 2.4643.355 5.617-.3037 7.589.0949-2.232.0118-5.3015.1524-7.741zm-.6836.456c.0201 2.398.3664 5.7795-.2276 7.8165.0629-2.3152-.0424-5.456.2276-7.8165zm-9.9885.076c-.2072-.0118-.4038.1627-.3301.4561.1014.1081.43.1081.5312 0v-.3799a.363.363 0 00-.201-.076zm9.004.38c.367 1.0045.2535 2.6975.1513 3.9463-.1324 1.6203.2536 3.5268-.6064 4.25-.379-1.2982-.2312-2.9574-.3037-4.5537-.0504-1.1075.038-2.2612 0-3.3388.2085-.1457.4182-.2903.7588-.3037zm-1.8115.5225a1.1129 1.1129 0 01.2939.0088c.217 2.4065.3444 5.9325-.1523 8.12-.1781.0243-.2848.1202-.5313.0762-.5675-2.215-.194-5.371-.303-8.045.2682-.0163.4356-.1325.6924-.1602zm-11.469.3125c.3834.0466.7204.1395 1.1386.1514.2097 2.6494.4799 5.6405.5303 8.1965-.8735-.495-1.0398-1.8183-1.2139-2.96-.247-1.621-.4625-3.222-.455-5.1605v-.2275zm9.6375.0762c.3813.5028.3478 1.2858.3789 1.9726.0893 1.9632-.0351 4.2698.0761 6.2225-.3613.1702-.8012.2614-1.29.3037-.276-2.6081-.1521-5.616-.3037-8.3475.2561-.174.8734.0133 1.1386-.1513zm-7.6645.1515c.5167-.0362.8756.086 1.2148.2275.1378 2.6698.1074 5.5085.2275 8.1965-.2585.1314-.4453-.0583-.835 0-.491-2.5195-.3744-5.647-.6074-8.424zm5.7675.1513v8.2725c-.4019-.0223-.7864.2911-1.0625.1514-.1323-2.7264-.251-5.4665-.3038-8.2715.45-.0561.8567-.1558 1.3662-.1523zm-2.9717.0088c.306.0146.6031.0645.8467.1436.0458 2.687.1765 5.691.0761 8.2715-.5748.0435-.9743-.0874-1.4414-.1514-.1903-2.668-.262-5.4555-.3799-8.1965.2775-.0612.5924-.082.8985-.0674zM10.709 28.18c.0824.0188.0517.1504.1523.1514-.5495 3.4146-1.2199 6.66-1.5176 10.3975-.5681.106-1.0495-.7407-1.0625-1.2149-.0087-.3057.3297-.624.3789-.9101.215-1.2577-.2378-2.8664.1523-4.0225.1566-.4643.7304-.7165.9864-1.2138.5469-1.0619.4583-2.2563.9101-3.1875zm44.7745 0c1.378.0664 2.7653.5801 3.6426 1.3662 3.788 3.394 2.8433 13.342-3.795 11.99.0459-4.4473-.0571-8.7455-.0751-13.129.0425-.1093.1182-.1848.2275-.2275zm-40.374.1397c.202.0099.3918.0616.457.164-.1918.2947-.6175.1992-.9864.1514v-.2275c.113-.066.3273-.0978.5293-.088zm-2.3506.9228c.2994-.0464.0889.4169.1513.6074h.3799c.0091-.2188-.0422-.4971.0752-.6074.273.0054.2398.3169.2275.6074h.38v.6065h-2.6563c.0186-.234.0774-.4284.1523-.6065h.5303c.0682-.1597.118-.3382.2275-.456.1676.0095.0325.3226.0762.456h.3037c.1743-.079-.0353-.5422.1523-.6074zm-1.5938 2.0489h2.8076c.142.1715.1038.8082 0 .9863-.9614-.0502-2.1248.1015-2.96-.0752.0408-.3133.1117-.5976.1524-.9111zm-.3037 1.745h3.1113c.157.0653.0801.5286 0 .6075-1.0373-.0506-2.2765.1007-3.1875-.0762.0243-.1779.1201-.2848.0762-.5312zm28.003.7589c.0968.4196.021.863-.1524 1.2148-.591 1.1986-2.9117 1.8987-4.5527 2.2764-1.997.46-4.2914.6637-6.0715.3799-.476-1.3263.7105-1.1647 1.8974-1.2149 3.0976-.1306 7.0385-1.0378 8.7265-2.5039.0188-.0824.1514-.052.1524-.1523zm-28.1555.6074h3.2636c.126.1308.126.7803 0 .9111h-3.415c.0947-.2595.0252-.6832.1514-.9111zm1.5185 1.708c.6692 0 1.338.0634 1.7451.1894-.2486.4135-1.057.2276-1.6699.2276-.6596 0-1.3554.0584-1.8213-.0762V36.3c.407-.126 1.077-.1894 1.7461-.1894zM25.583 36.3c.8508-.016 1.4714.1978 2.3526.1514-.4685.2771-.3696 1.164-.1514 1.3662-.6977.0401-1.1492-.1662-1.8213-.1514-.1955-.3866-.3953-.7689-.3799-1.3662zm12.5975.4551c.1412.9856-.4527 2.5246-.6826 3.6426-.0644-1.203.357-2.5768.6826-3.6426zm-9.6375.2275c-.1828.2384-.0153.6335.3038.6074.1658-.0174.4378-.3125.2275-.455-.131.3524-.4488 0-.5313-.1524zm-18.1365.3038h3.5664c.1762.4309.0262 1.1879.0762 1.745-1.0191.0783-2.7485.2235-3.6426-.0751-.0083-.5651-.1714-1.149 0-1.67zm26.788 0h.2276c-.2032 1.2891-.315 2.67-.7588 3.7187-.14-1.2535.3937-2.4899.5312-3.7187zm-.9111.2275h.3037c-.028.7163-.2295 1.5248-.3789 2.2763-.1305.6543-.0381 1.658-.7588 1.8213.2915-1.3526.1483-3.1392.834-4.0976zm-1.1397.4531a.8068.8068 0 01.2295.002c-.0269.7078-.2405 1.5625-.3798 2.3525-.1218.6926.0316 1.776-.834 1.8213.0298-1.4623.234-2.7497.455-4.0215.2036-.0241.3298-.1262.5293-.1543zm-1.4404.3819c.3578 1.196-.1605 2.8211-.2275 4.0976-.2874.0415-.4745.184-.835.1524v-4.0225c.374-.0561.7014-.1586 1.0625-.2275zm-6.754.3037c.3111-.0075.6223-.0148.835.0761.2656 1.2773.3288 2.757.3798 4.249-1.2763-.1715-1.1603-2.6518-1.2148-4.3252zm2.2314.0683c.2464.0061.5077.0273.7285.0078.2695 1.259.2675 2.9839.2276 4.3252h-1.2139c-.2603-1.2826-.2822-2.8045-.3799-4.25.1597-.0804.3914-.089.6377-.083zm1.6387.0078h1.0625v4.0215c-.3392.0659-.6253.1842-1.0625.1514-.0642-1.3073-.227-3.0438 0-4.1728zm-4.7803.0752c.2817.1967.3446.853.2276 1.2149-.2457-.2036-.2869-.952-.2276-1.2149zm-16.7715.1524c.0208.5265-.372.6394-.9111.6064-.059-.1686-.159-.2958-.1514-.5312.282-.111.6777.0614 1.0625-.0752zm28.1545 2.125c.0884-.0125.1348.0159.1514.0752.0206.501-.2652.6952-.3789 1.0625-2.2646 1.1784-5.1115 2.5743-8.499 2.125v-.6074c3.495-.2989 6.5165-1.071 8.7265-2.6553zM9.3496 42.3938c.1944.0403.4346.356.4493.5078.054.5576.4428 1.5396.455 1.8222.0231.538-.5279 1.0055-.1513 1.3653.305-.0998.2159-.5934.2275-.9864.4999.3942.0115 1.2441-.2275 1.5938-.2765.0233-.4945-.0122-.6836-.0762.0336-.4129-.1917-.566-.3028-.834.0398-.365.3263-.4832.5303-.6836-.3825-.2498-.7923-.4719-.834-1.0625.353-.327.7513-.9865.3789-1.5937a.1515.1515 0 01.0781-.0518.173.173 0 01.0801-.001zm-.5908.0068c.0876.006.1642.0428.2051.122-.2113.1175-.5548.1029-.6074.379-.2201-.2556.1398-.5188.4024-.501zm-5.6555.1719a.1743.1743 0 01.0928.0264c.1663.3692-.1847.8074-.0762 1.3652h-.455c.0075.311.0147.6223-.0762.835-.6234.0996-.998 1.0345-1.7451.5312.1067-1.006.6638-1.5622 1.6699-1.669.1728-.182-.1667-.2796-.0762-.6073.2601-.0518.4524-.4763.666-.4815zm5.549.252a.4536.4536 0 01.2354.0771c-.2965.0581-.4043.3042-.6826.3799-.0352-.2863.2033-.4673.4473-.457zm.1954.328c.1007.011.1801.0718.1923.2052-.3619-.0584-.5003.107-.6074.3037-.2069-.2088.065-.4603.3086-.504a.3787.3787 0 01.1065-.0048zm20.3025.7364c-.0874.0894-.0865.2681-.0762.4551h.455v-.3799c-.0879-.0636-.203-.0997-.3788-.0752zm5.3115.1514c.0794.3781-.5366.627-.6826.3037.0907-.238.3762-.2812.6826-.3037zm-1.5713.455c.135.004.257.0555.2822.1524.048.3515-.4156.1922-.6836.2276-.0859-.2613.1763-.3864.4013-.38zm-1.3731.3057c.047.0075.0922.0294.1367.0743-.0573.246-.2777.33-.6074.3037v-.3037c.1758.0093.3298-.0966.4707-.0743zm-1.2295.1504c.0803.5375-.712.4277-.9863.379-.0303-.4853.5578-.352.9863-.379zM.5403 45.102c.3366.2704.356.8582 1.0625.7588-.0445 1.793-2.3688-.1106-1.0625-.7588zm24.9395 5.2745c-.7839 0-1.3835.232-1.7978.6963-.5556.548-.833 1.3687-.833 2.462 0 1.0714.2773 1.8914.833 2.4609.4142.4645 1.0139.6963 1.7978.6963s1.3826-.2318 1.7969-.6963c.553-.5695.8301-1.3894.8301-2.461 0-1.0932-.277-1.914-.8301-2.4619-.4143-.4643-1.013-.6963-1.7969-.6963zm45.3095.0088c-.7007 0-1.2322.1769-1.5937.5303-.3618.3536-.542.7976-.542 1.332 0 .5857.184 1.016.5537 1.291.2182.1647.6192.3177 1.203.458l.5938.1407c.3473.0812.6016.175.7617.2803.1601.108.2402.26.2402.457 0 .3374-.1633.5683-.4902.6924-.1722.0649-.3967.0977-.6728.0977-.4612 0-.7866-.1237-.9766-.3692-.104-.135-.1736-.3387-.209-.6113h-1.0937c0 .6208.2076 1.1088.621 1.4638.4138.355.981.5322 1.7032.5322.707 0 1.2542-.1795 1.6416-.54.3874-.3604.581-.813.581-1.3584 0-.5315-.163-.938-.4902-1.2188-.2105-.1808-.5265-.3256-.9483-.4336l-.9629-.247c-.3714-.0945-.614-.176-.7285-.2461-.178-.1052-.2666-.2653-.2666-.4785 0-.2321.0899-.4126.2705-.542.1805-.13.422-.1944.7246-.1944.2722 0 .4998.0496.6826.1494.2748.1512.4229.4069.4434.7656h1.1006c-.0201-.6343-.2363-1.1187-.6494-1.4521-.4133-.3333-.912-.499-1.497-.499zm-30.831.0606c-.6823 0-1.2437.2453-1.6855.7363-.508.564-.7627 1.3673-.7627 2.4092 0 .9636.2232 1.7221.6699 2.2754.4465.5507 1.0604.8261 1.8408.8261.6307 0 1.1479-.2037 1.5517-.6113.4036-.4074.6549-.9374.753-1.588h-1.1387c-.0753.3078-.1703.5385-.2842.6925-.2063.286-.5053.4297-.8984.4297-.3835 0-.6996-.1666-.9483-.5-.2486-.3333-.373-.8344-.373-1.504 0-.6694.1179-1.187.3535-1.5527.2358-.3657.5576-.5488.9658-.5488.401 0 .703.1293.9072.3886.114.1457.2084.3615.2813.6475h1.1455c-.0172-.3724-.1418-.7435-.375-1.1133-.4222-.6588-1.0902-.9873-2.003-.9873zm-11.0715.1133v5.968h1.0606v-5.968zm4.6807.0078v2.1054c-.119-.2077-.275-.3709-.4659-.4883-.191-.1174-.4088-.1758-.6543-.1758-.5335 0-.9595.2158-1.2783.6475-.3186.4319-.4785 1.0242-.4785 1.7773 0 .653.1626 1.1882.4863 1.6055.3238.4169.7225.626 1.1963.626.2878 0 .5282-.06.7217-.1787.1936-.1186.3654-.3086.5166-.5703v.6113h1.0313v-5.96h-1.0752zm23.591.3564v1.2304h-.5655v.8223h.5655v2.7158c0 .2755.0595.4793.1787.6113.1834.208.5253.3028 1.0263.2842l.503-.0205v-.8623a3.1487 3.1487 0 01-.209.0078c-.2159 0-.3446-.0219-.3867-.0664-.0423-.0446-.0635-.157-.0635-.3379v-2.332h.6592v-.8223h-.6592v-1.2304h-1.0488zm16.789 0v1.2304h-.5655v.8223h.5655v2.7158c0 .2755.0595.4793.1787.6113.1834.208.5263.3028 1.0273.2842l.502-.0205v-.8623a3.0903 3.0903 0 01-.208.0078c-.2159 0-.3456-.0219-.3877-.0664-.0423-.0446-.0625-.157-.0625-.3379v-2.332h.6582v-.8223h-.6582v-1.2304h-1.0498zm-48.468.5097c.454 0 .8134.1832 1.08.5488.2667.366.4004.8835.4004 1.5528 0 .672-.1337 1.1904-.4003 1.5547-.2667.3645-.6261.5469-1.0801.5469-.454 0-.8165-.1824-1.087-.5469-.2704-.3643-.4052-.8827-.4052-1.5547 0-.672.1348-1.1904.4053-1.5547.2704-.3643.6329-.5469 1.0869-.5469zm19.4795.5391c-.6972 0-1.2172.2327-1.5596.6992-.3423.4665-.5136 1.0178-.5136 1.6543 0 .6473.1713 1.2012.5136 1.6611.3424.4598.8624.6895 1.5596.6895.6971 0 1.2164-.2297 1.5586-.6895.3423-.46.5136-1.0138.5136-1.6611 0-.6365-.1713-1.1878-.5136-1.6543-.3422-.4665-.8615-.6992-1.5586-.6992zm33.17 0c-.6972 0-1.2165.2327-1.5586.6992-.3426.4665-.5137 1.0178-.5137 1.6543 0 .6473.171 1.2012.5137 1.6611.3421.4598.8614.6895 1.5586.6895.6971 0 1.2172-.2297 1.5595-.6895.3422-.46.5137-1.0138.5137-1.6611 0-.6365-.1715-1.1878-.5137-1.6543-.3423-.4665-.8624-.6992-1.5595-.6992zm7.426.0234c-.5944 0-1.0778.2044-1.4502.6123-.3724.4078-.5586.9945-.5586 1.7588 0 .816.2056 1.4047.6181 1.7666.4127.362.8887.543 1.4287.543.6539 0 1.1629-.2144 1.5264-.6436.2336-.2698.364-.5359.3925-.7978H86.43c-.063.1295-.1365.231-.2188.3037-.151.1352-.3471.2022-.5888.2022-.2277 0-.4221-.0554-.584-.166-.2665-.1783-.4084-.4882-.4248-.9307h2.954c.0052-.3811-.0064-.6734-.035-.876-.0493-.3461-.157-.65-.3233-.9121-.1842-.2975-.4172-.5156-.7002-.6533-.2829-.138-.6011-.207-.9541-.207zm-30.924.0127c-.3335 0-.609.0888-.8262.2666-.1212.1-.25.2636-.3857.4903v-.6436h-1.0274v4.4053h1.0606v-2.3887c0-.2725.0345-.4965.1035-.6719.133-.332.3783-.499.7353-.499.2906 0 .4873.114.5908.3408.0566.1242.085.3022.085.5342v2.6846h1.0869V53.555c0-.5533-.133-.9495-.3985-1.1885-.2656-.2388-.6067-.3584-1.0244-.3584zm7.088 0c-.3175 0-.575.0909-.7735.2715-.1216.1082-.2639.3086-.4277.6026v-.7686H59.505v4.4131h1.0683v-2.1094c0-.3536.0412-.6151.123-.7851.1465-.3022.4327-.4541.8595-.4541.0322 0 .0738.001.126.004.052.0025.1116.0087.1787.0166v-1.1826a2.5624 2.5624 0 01-.0909-.0059.685.685 0 00-.0507-.002zm21.414 0c-.3175 0-.575.0909-.7735.2715-.1216.1082-.2639.3086-.4277.6026v-.7686H80.919v4.4131h1.0683v-2.1094c0-.3536.0412-.6151.123-.7851.1465-.3022.4327-.4541.8595-.4541.0322 0 .0738.001.126.004.052.0025.1116.0087.1787.0166v-1.1826a2.5624 2.5624 0 01-.0909-.0059.685.685 0 00-.0507-.002zm-35.4025.1055v2.6592c0 .5049.0576.8874.1738 1.1465.208.4697.6114.7041 1.21.7041.2077 0 .3893-.0295.5439-.0889.1546-.0592.3148-.1701.4804-.332a.7954.7954 0 00.1407-.1787c.0397-.0674.0643-.1076.0742-.121v.624h1.0312v-4.4132h-1.0761v2.4004c0 .2835-.0344.5118-.1035.6846-.1332.3186-.38.4775-.7403.4775-.2814 0-.4701-.112-.5664-.336-.0543-.1266-.082-.316-.082-.5673v-2.6592h-1.086zm14.3025 0l1.4902 4.6074c.0073.0324-.0161.1207-.0693.2666-.0534.1457-.111.242-.1729.2881-.0646.0487-.1442.0791-.2383.0928a1.5402 1.5402 0 01-.2978.0117l-.1338-.0078v.9228c.114.0081.1997.0132.2568.0147a9.308 9.308 0 00.2276.002c.4692 0 .7819-.101.9385-.3018.1563-.2012.3698-.72.6386-1.5566l1.3897-4.3399h-1.127l-.8369 3.255-.8857-3.255H62.033zm-17.078.834c.3099 0 .5486.1189.7148.3574.1662.2384.249.5786.249 1.0205 0 .4422-.0828.7835-.249 1.0235-.1662.2398-.405.3594-.7148.3594-.3104 0-.5484-.1196-.7158-.3594-.1675-.24-.252-.5813-.252-1.0235 0-.442.0845-.782.252-1.0205.1674-.2385.4054-.3574.7158-.3574zm33.17 0c.31 0 .5484.1189.7148.3574.166.2384.249.5786.249 1.0205 0 .4422-.083.7835-.249 1.0235-.1664.2398-.4047.3594-.7148.3594-.3102 0-.5486-.1196-.7158-.3594-.1677-.24-.251-.5813-.251-1.0235 0-.442.0833-.782.251-1.0205.1672-.2385.4056-.3574.7158-.3574zm7.4295 0c.2502 0 .4597.0796.6289.2383.169.1583.264.39.2832.6963h-1.8272c.0388-.2872.1324-.5144.2822-.6826.1499-.168.3605-.252.6328-.252zm-52.87.06c.2033 0 .3821.0706.5361.211.2504.2322.375.6182.375 1.1582 0 .386-.078.6994-.2344.9424-.1563.2429-.3843.3652-.6845.3652-.3 0-.5242-.1227-.672-.3672-.1476-.2441-.2206-.57-.2206-.9775 0-.3778.0717-.6943.2168-.9492.1452-.2552.3734-.3829.6836-.3829z"/></svg>